<?xml version="1.0" encoding="UTF-8" standalone="no"?>
<svg
   width="400"
   zoomAndPan="magnify"
   viewBox="0 0 300 300"
   height="400"
   preserveAspectRatio="xMidYMid"
   version="1.0"
   id="svg15"
   sodipodi:docname="receipt.svg"
   inkscape:version="1.3 (0e150ed, 2023-07-21)"
   xmlns:inkscape="http://www.inkscape.org/namespaces/inkscape"
   xmlns:sodipodi="http://sodipodi.sourceforge.net/DTD/sodipodi-0.dtd"
   xmlns="http://www.w3.org/2000/svg"
   xmlns:svg="http://www.w3.org/2000/svg">
  <sodipodi:namedview
     id="namedview15"
     pagecolor="#ffffff"
     bordercolor="#000000"
     borderopacity="0.25"
     inkscape:showpageshadow="2"
     inkscape:pageopacity="0.0"
     inkscape:pagecheckerboard="0"
     inkscape:deskcolor="#d1d1d1"
     inkscape:zoom="0.55053566"
     inkscape:cx="890.95046"
     inkscape:cy="521.31046"
     inkscape:window-width="1440"
     inkscape:window-height="847"
     inkscape:window-x="0"
     inkscape:window-y="25"
     inkscape:window-maximized="1"
     inkscape:current-layer="svg15" />
  <defs
     id="defs1">
    <clipPath
       id="f320cad1bd">
      <path
         d="m 626.74609,289.87109 h 186.75 v 230.2461 h -186.75 z m 0,0"
         clip-rule="nonzero"
         id="path1" />
    </clipPath>
  </defs>
  <path
     fill="#e7f2f1"
     d="m 227.79383,248.18559 c -8.22266,-9.11328 -9.88672,-20.4375 -9.88672,-27.08594 0,-45.13281 -0.0195,-90.26172 -0.0195,-135.394529 v -36.91016 c 0.0391,-1.05859 0.0742,-7.32422 -4.94141,-12.3125 -5.01562,-5.0039 -11.27734,-4.94922 -12.33984,-4.92968 H 69.62196 c -9.48047,0 -17.30079,7.78125 -17.30079,17.24218 v 36.91016 l 9.88672,-12.30859 7.41407,12.30859 7.41796,-12.30859 9.88672,12.30859 V 221.09965 c -0.0742,3.32422 0.0547,16.36328 9.88672,27.08594 5.28906,5.77344 11.25781,8.54687 14.8125,9.84375 l 2.46875,-9.84375 22.2461,9.84375 2.47265,-9.84375 22.2461,9.84375 2.46875,-9.84375 22.24609,9.84375 2.47266,-9.84375 22.22656,9.84375 2.47265,-9.84375 22.41016,6.30078 c -2.50781,-1.57031 -5.14453,-3.61719 -7.5625,-6.30078 z m 0,0"
     fill-opacity="1"
     fill-rule="nonzero"
     id="path2" />
  <path
     fill="#c3ddda"
     d="m 86.92664,48.794961 v 36.91016 l -9.88672,-12.30859 -7.41796,12.30859 -7.41407,-12.30859 -9.88672,12.30859 v -36.91016 c 0,-9.46093 7.82032,-17.24218 17.30079,-17.24218 9.48437,0 17.30468,7.78125 17.30468,17.24218 z m 0,0"
     fill-opacity="1"
     fill-rule="nonzero"
     id="path3" />
  <g
     clip-path="url(#f320cad1bd)"
     id="g4"
     transform="translate(-576.25695,-260.20113)">
    <path
       fill="#3a322b"
       d="m 813.46484,514.75 c 0.004,-0.125 0.008,-0.24609 -0.0156,-0.36719 -0.0195,-0.0976 -0.0586,-0.18359 -0.0898,-0.27734 -0.0469,-0.12891 -0.0937,-0.25391 -0.16796,-0.3711 -0.0469,-0.0781 -0.11329,-0.13671 -0.17579,-0.21093 -0.0977,-0.10938 -0.1914,-0.21094 -0.3164,-0.29297 -0.0273,-0.0195 -0.0391,-0.0508 -0.0703,-0.0664 -2.73047,-1.69531 -5.16016,-3.71484 -7.22266,-6.0039 -8.5,-9.42188 -9.41797,-21.21875 -9.41797,-25.85547 l -0.004,-172.26953 c 0.043,-1.87891 -0.22265,-8.40625 -5.48046,-13.64454 -5.23047,-5.21093 -11.70313,-5.5 -13.64844,-5.45703 H 645.87891 c -10.54688,-0.004 -19.13282,8.54688 -19.13282,19.05469 v 36.92578 c 0,0.77344 0.4961,1.46875 1.22657,1.72266 0.73046,0.25781 1.55078,0.0234 2.03515,-0.58203 l 8.24219,-10.25782 6.05859,10.0586 c 0.66016,1.09765 2.47657,1.09765 3.14063,0 l 6.05859,-10.0586 7.83985,9.75782 v 134.71875 c -0.10157,5.01172 0.70703,17.8164 10.36328,28.34375 4.17968,4.5625 9.55859,8.13281 15.54687,10.32812 0.0352,0.0156 0.0703,0.008 0.10156,0.0195 0.0312,0.008 0.0547,0.0312 0.082,0.0391 0.0625,0.0117 0.12109,0 0.17968,0.008 0.0899,0.0117 0.17578,0.0469 0.26563,0.0469 0.0625,0 0.12109,-0.0234 0.17969,-0.0273 0.0664,-0.008 0.1289,-0.0156 0.1914,-0.0312 0.16406,-0.0352 0.32031,-0.0898 0.46875,-0.16797 0.043,-0.0234 0.0899,-0.0391 0.12891,-0.0625 0.18359,-0.11719 0.34765,-0.25781 0.48437,-0.43359 0.0156,-0.0195 0.0234,-0.0469 0.0391,-0.0664 0.0859,-0.125 0.17187,-0.25781 0.22656,-0.41016 0.008,-0.0312 0.004,-0.0664 0.0117,-0.0977 0.0117,-0.0312 0.0351,-0.0547 0.043,-0.0859 l 1.94531,-7.74219 20.2539,8.96875 c 0.0469,0.0195 0.10157,0.0117 0.14844,0.0312 0.0547,0.0156 0.0937,0.0547 0.14844,0.0664 0.0742,0.0195 0.15234,0.004 0.23047,0.0117 0.0703,0.008 0.14062,0.0469 0.21094,0.0469 0.0664,0 0.125,-0.0195 0.1914,-0.0273 0.0547,-0.008 0.10938,-0.0156 0.16797,-0.0234 0.18359,-0.0391 0.35938,-0.10156 0.52344,-0.1914 0.0234,-0.0117 0.0469,-0.0195 0.0703,-0.0312 0.17969,-0.10938 0.33984,-0.25391 0.47266,-0.42188 0.0351,-0.043 0.0586,-0.0898 0.0898,-0.13672 0.0547,-0.082 0.11719,-0.16015 0.16016,-0.2539 0.0234,-0.0508 0.0195,-0.10547 0.0351,-0.15625 0.0195,-0.0469 0.0547,-0.0859 0.0703,-0.14063 l 1.9414,-7.73828 20.25391,8.96484 c 0.0469,0.0234 0.10156,0.0156 0.14844,0.0312 0.0547,0.0195 0.0937,0.0547 0.14843,0.0703 0.0742,0.0156 0.15235,0 0.23047,0.0117 0.0703,0.008 0.14063,0.043 0.21094,0.043 0.0664,0 0.12891,-0.0195 0.19141,-0.0273 0.0547,-0.004 0.11328,-0.0117 0.16796,-0.0234 0.1836,-0.0351 0.35938,-0.0976 0.52735,-0.1875 0.0195,-0.0156 0.043,-0.0195 0.0664,-0.0312 0.17969,-0.10937 0.33985,-0.2539 0.47266,-0.42187 0.0352,-0.043 0.0586,-0.0937 0.0898,-0.13672 0.0547,-0.0859 0.11719,-0.16406 0.16407,-0.25391 0.0195,-0.0547 0.0156,-0.10547 0.0312,-0.15625 0.0195,-0.0508 0.0547,-0.0898 0.0703,-0.14062 l 1.94531,-7.74219 20.25,8.96875 c 0.0508,0.0195 0.10156,0.0117 0.15235,0.0273 0.0508,0.0195 0.0898,0.0586 0.14453,0.0703 0.0781,0.0195 0.15625,0.004 0.23047,0.0117 0.0742,0.008 0.14453,0.0469 0.21484,0.0469 0.0664,0 0.125,-0.0195 0.1875,-0.0273 0.0586,-0.008 0.11328,-0.0156 0.17187,-0.0234 0.1836,-0.0391 0.35547,-0.10156 0.52344,-0.19141 0.0234,-0.0117 0.0469,-0.0156 0.0703,-0.0312 0.17969,-0.10937 0.33594,-0.25 0.46875,-0.41797 0.0391,-0.0469 0.0625,-0.0976 0.0937,-0.14453 0.0547,-0.082 0.11719,-0.15625 0.16016,-0.25 0.0195,-0.0508 0.0156,-0.10547 0.0312,-0.15625 0.0195,-0.0508 0.0586,-0.0859 0.0703,-0.14062 l 1.94532,-7.73828 20.25,8.96484 c 0.0508,0.0234 0.10156,0.0156 0.14843,0.0312 0.0547,0.0195 0.0937,0.0547 0.14844,0.0703 0.14453,0.0352 0.29297,0.0508 0.4375,0.0547 0,0 0.004,0 0.004,0 0,0 0.004,0 0.004,0 0.008,0 0.0156,-0.004 0.0234,-0.004 0.18359,0 0.35938,-0.0351 0.53125,-0.0898 0.0625,-0.0195 0.11719,-0.0508 0.17578,-0.0781 0.11328,-0.0508 0.21875,-0.10156 0.32031,-0.17187 0.0625,-0.043 0.11329,-0.0977 0.16797,-0.14844 0.082,-0.0742 0.16016,-0.15234 0.23047,-0.24219 0.0469,-0.0664 0.0859,-0.13281 0.12891,-0.20703 0.0312,-0.0508 0.0703,-0.0898 0.0937,-0.14453 0.0195,-0.043 0.0117,-0.0898 0.0312,-0.13281 0.0195,-0.0586 0.0586,-0.10547 0.0703,-0.16406 l 2.01563,-8.02344 20.60546,5.80469 c 0.17188,0.0547 0.35157,0.0859 0.53125,0.0859 0.0586,0 0.11329,-0.0195 0.17188,-0.0234 0.0391,-0.004 0.0742,-0.008 0.10937,-0.0117 0.41797,-0.0664 0.80469,-0.26953 1.09375,-0.60547 0.0312,-0.0312 0.0586,-0.0664 0.0898,-0.10547 0.0273,-0.0391 0.0664,-0.0703 0.0937,-0.11719 0.0469,-0.0742 0.0586,-0.16015 0.0937,-0.24218 0.0312,-0.0781 0.0898,-0.14454 0.11719,-0.23047 0.0117,-0.0352 0,-0.0703 0.008,-0.10938 0.0117,-0.12109 0.0117,-0.23437 0.0156,-0.35156 z M 653.16797,331.78516 c -0.59766,0.0391 -1.13672,0.36718 -1.44531,0.8789 l -5.84375,9.70313 -5.84375,-9.70313 c -0.3086,-0.51172 -0.84766,-0.83984 -1.44532,-0.8789 -0.0391,0 -0.082,-0.004 -0.12109,-0.004 -0.55469,0 -1.08203,0.25 -1.42969,0.68359 l -6.6289,8.25 v -31.72656 c 0,-8.49219 6.9375,-15.40625 15.46875,-15.40625 8.52734,0 15.46484,6.91406 15.46484,15.40625 v 31.72656 l -6.625,-8.25 c -0.375,-0.46875 -0.95313,-0.71093 -1.55078,-0.67968 z m 136.53906,174.84375 c -0.47656,-0.13672 -0.98828,-0.0703 -1.41406,0.17578 -0.42969,0.25 -0.73828,0.65625 -0.85938,1.13672 l -1.9414,7.74218 -20.25391,-8.96484 c -0.49219,-0.21875 -1.05469,-0.20703 -1.54297,0.0273 -0.48828,0.23438 -0.84375,0.67578 -0.97265,1.19532 l -1.94141,7.74218 -20.25391,-8.96484 c -0.49218,-0.21875 -1.05859,-0.20313 -1.54297,0.0312 -0.48828,0.23437 -0.84375,0.67187 -0.97265,1.19531 l -1.94531,7.74219 -20.25,-8.96484 c -0.4961,-0.22266 -1.0586,-0.20704 -1.54688,0.0273 -0.48828,0.23437 -0.84375,0.67578 -0.97266,1.19531 l -1.9414,7.74219 -20.25,-8.96484 c -0.4961,-0.21875 -1.0586,-0.20313 -1.54688,0.0312 -0.48828,0.23437 -0.84375,0.67187 -0.97265,1.19531 l -1.96094,7.8164 c -4.67578,-2.01562 -8.86719,-4.96093 -12.21094,-8.60546 -8.76172,-9.55469 -9.49609,-21.23438 -9.40625,-25.84375 V 308.98828 c 0,-6.33203 -3.1289,-11.9375 -7.91406,-15.40625 h 119.76172 c 0.008,0 0.0156,-0.004 0.0195,-0.004 0.0117,0 0.0156,0.004 0.0273,0.004 1.48828,-0.0312 6.77344,0.16406 11.01172,4.38672 4.23047,4.21484 4.44531,9.46484 4.40625,11.01953 l 0.008,172.31641 c 0,5.05859 1.01172,17.93359 10.35547,28.29687 0.28907,0.32422 0.60157,0.625 0.90235,0.9336 z m 0,0"
       fill-opacity="1"
       fill-rule="nonzero"
       id="path4" />
  </g>
  <path
     fill="#3a322b"
     d="m 131.40321,48.154341 h 42.00781 c 1.01172,0 1.83203,-0.82031 1.83203,-1.82813 0,-1.00781 -0.82031,-1.82812 -1.83203,-1.82812 h -42.00781 c -1.01563,0 -1.83204,0.82031 -1.83204,1.82812 0,1.00782 0.82032,1.82813 1.83204,1.82813 z m 0,0"
     fill-opacity="1"
     fill-rule="nonzero"
     id="path5" />
  <path
     fill="#3a322b"
     d="m 185.77039,140.5059 h -66.72656 c -1.01172,0 -1.82812,0.81641 -1.82812,1.82422 0,1.00781 0.8164,1.82812 1.82812,1.82812 h 66.72266 c 1.01172,0 1.83203,-0.82031 1.83203,-1.82812 0,-1.00781 -0.82031,-1.82422 -1.82813,-1.82422 z m 0,0"
     fill-opacity="1"
     fill-rule="nonzero"
     id="path6" />
  <path
     fill="#3a322b"
     d="m 99.27821,67.845741 h 44.47656 c 1.01562,0 1.83203,-0.8164 1.83203,-1.82421 0,-1.00782 -0.81641,-1.82813 -1.83203,-1.82813 H 99.27821 c -1.01563,0 -1.83204,0.82031 -1.83204,1.82813 0,1.00781 0.81641,1.82421 1.83204,1.82421 z m 0,0"
     fill-opacity="1"
     fill-rule="nonzero"
     id="path7" />
  <path
     fill="#3a322b"
     d="m 99.27821,85.076211 h 44.47656 c 1.01562,0 1.83203,-0.8164 1.83203,-1.82422 0,-1.00781 -0.81641,-1.82812 -1.83203,-1.82812 H 99.27821 c -1.01563,0 -1.83204,0.82031 -1.83204,1.82812 0,1.00782 0.81641,1.82422 1.83204,1.82422 z m 0,0"
     fill-opacity="1"
     fill-rule="nonzero"
     id="path8" />
  <path
     fill="#3a322b"
     d="m 99.27821,102.31059 h 44.47656 c 1.01562,0 1.83203,-0.82031 1.83203,-1.82813 0,-1.007809 -0.81641,-1.824219 -1.83203,-1.824219 H 99.27821 c -1.01563,0 -1.83204,0.81641 -1.83204,1.824219 0,1.00782 0.81641,1.82813 1.83204,1.82813 z m 0,0"
     fill-opacity="1"
     fill-rule="nonzero"
     id="path9" />
  <path
     fill="#3a322b"
     d="m 145.5868,117.71293 c 0,-1.00781 -0.81641,-1.82422 -1.83203,-1.82422 H 99.27821 c -1.01563,0 -1.83204,0.81641 -1.83204,1.82422 0,1.00781 0.81641,1.82813 1.83204,1.82813 h 44.47656 c 1.01562,0 1.83203,-0.81641 1.83203,-1.82813 z m 0,0"
     fill-opacity="1"
     fill-rule="nonzero"
     id="path10" />
  <path
     fill="#3a322b"
     d="m 205.53992,64.193401 h -32.1289 c -1.01172,0 -1.82813,0.82031 -1.82813,1.82813 0,1.00781 0.81641,1.82421 1.82813,1.82421 h 32.1289 c 1.01172,0 1.83204,-0.8164 1.83204,-1.82421 0,-1.00782 -0.82032,-1.82813 -1.83204,-1.82813 z m 0,0"
     fill-opacity="1"
     fill-rule="nonzero"
     id="path11" />
  <path
     fill="#3a322b"
     d="m 205.53992,81.423871 h -32.1289 c -1.01172,0 -1.82813,0.82031 -1.82813,1.82812 0,1.00782 0.81641,1.82422 1.82813,1.82422 h 32.1289 c 1.01172,0 1.83204,-0.8164 1.83204,-1.82422 0,-1.00781 -0.82032,-1.82812 -1.83204,-1.82812 z m 0,0"
     fill-opacity="1"
     fill-rule="nonzero"
     id="path12" />
  <path
     fill="#3a322b"
     d="m 205.53992,98.658241 h -32.1289 c -1.01172,0 -1.82813,0.81641 -1.82813,1.824219 0,1.00782 0.81641,1.82813 1.82813,1.82813 h 32.1289 c 1.01172,0 1.83204,-0.82031 1.83204,-1.82813 0,-1.007809 -0.82032,-1.824219 -1.83204,-1.824219 z m 0,0"
     fill-opacity="1"
     fill-rule="nonzero"
     id="path13" />
  <path
     fill="#3a322b"
     d="m 205.53992,115.88871 h -32.1289 c -1.01172,0 -1.82813,0.81641 -1.82813,1.82422 0,1.00781 0.81641,1.82813 1.82813,1.82813 h 32.1289 c 1.01172,0 1.83204,-0.82032 1.83204,-1.82813 0,-1.00781 -0.82032,-1.82422 -1.83204,-1.82422 z m 0,0"
     fill-opacity="1"
     fill-rule="nonzero"
     id="path14" />
  <path
     fill="#3a322b"
     d="m 154.41492,193.54106 c -0.4414,-0.10547 -0.88671,-0.21485 -1.32812,-0.32422 l 0.0117,-20.96875 c 4.33984,0.12109 8.49219,2.41406 10.92969,6.15234 0.55078,0.84766 1.6875,1.08985 2.53125,0.53516 0.84765,-0.55078 1.08984,-1.67969 0.53515,-2.52735 -3.10547,-4.77343 -8.4375,-7.68359 -13.99219,-7.80859 v -4.11328 c 0,-1.01172 -0.8164,-1.82813 -1.82812,-1.82813 -0.004,0 -0.004,0 -0.004,0 -1.00781,0 -1.82812,0.81641 -1.82812,1.82422 l -0.004,4.44922 c -1.69922,0.34766 -3.32422,0.95703 -4.84765,1.83594 -5.25,3.02734 -8.125,8.86328 -7.16016,14.52344 0.19531,1.16406 0.55859,2.27343 1.07812,3.30078 2.14844,4.23828 6.44922,6.15234 10.91407,7.4375 l -0.008,18.78515 c -4.10546,-0.65625 -8.36328,-3.00781 -11.41015,-7.38671 -0.57813,-0.82813 -1.71875,-1.03516 -2.55078,-0.45704 -0.83203,0.57422 -1.03516,1.71094 -0.45703,2.54297 3.53125,5.07422 8.94531,8.25782 14.41406,8.9961 l -0.004,4.74218 c 0,1.00782 0.82031,1.82813 1.83203,1.82813 1.01172,0 1.83203,-0.81641 1.83203,-1.82422 v -4.64062 c 2.10157,-0.15235 4.15235,-0.66797 6.03907,-1.62891 5.69922,-2.91016 10.44531,-10.23438 8.13672,-16.09766 -1.84375,-4.6914 -7.42969,-6.03906 -12.83204,-7.34765 z M 141.7743,186.9434 c -0.35156,-0.69922 -0.60156,-1.45703 -0.73438,-2.25781 -0.71484,-4.16406 1.44922,-8.48828 5.38282,-10.75391 0.95312,-0.55469 1.96484,-0.95703 3.01172,-1.23828 l -0.008,19.51563 c -3.34765,-1.0625 -6.26562,-2.53125 -7.65234,-5.26563 z m 15.67187,26.78906 c -1.30078,0.66407 -2.78906,1.07032 -4.37109,1.21875 l 0.008,-17.97265 c 0.15625,0.0391 0.31641,0.0781 0.46875,0.11718 4.69922,1.13282 9.14063,2.20704 10.29297,5.12891 1.36328,3.46484 -1.80859,9.16406 -6.39844,11.50781 z m 0,0"
     fill-opacity="1"
     fill-rule="nonzero"
     id="path15" />
</svg>
